# xmcd CD database file
#
# Track frame offsets:
#	150
#	23945
#	47736
#
# Disc length: 953 seconds
#
# Revision: 2
# Processed by: cddbd v1.5.1PL0 Copyright (c) Steve Scherf et al.
# Submitted via: CDex 1.51
#
DISCID=1e03b703
DTITLE=工藤　静香 - 〜生まれし花〜
DYEAR=2005
DGENRE=JPop
TTITLE0=Lotus〜生まれし花〜
TTITLE1=Simple
TTITLE2=Lotus〜生まれし花〜 (less vocal)
EXTD=YEAR: 2005
EXTT0=
EXTT1=
EXTT2=
PLAYORDER=
